<?xml version="1.0" encoding="UTF-8"?>
<svg id="Capa_2" data-name="Capa 2" xmlns="http://www.w3.org/2000/svg" viewBox="0 0 506.16 159.41">
  <g id="Capa_1-2" data-name="Capa 1">
    <path d="M414.41,158.29c2.05-14.01,4.07-27.75,6.23-42.5-4.14,3.59-7.52,6.5-10.88,9.43-12.02,10.47-24.01,20.97-36.07,31.39-1.05,.9-2.55,1.8-3.85,1.81-18.82,.11-37.64,.08-56.46,.06-.45,0-.89-.13-1.71-.27,2.33-14.14,4.64-28.17,7.1-43.1-1.61,1.4-2.57,2.17-3.45,3.01-13.87,13.08-27.69,26.19-41.64,39.19-1.19,1.11-3.16,1.95-4.76,1.95-48.15,.1-96.3,.06-144.44,.14-2.28,0-3.55-.83-4.81-2.54-9.28-12.53-18.64-25-27.98-37.49-.81-1.08-1.65-2.14-2.79-3.61-2.34,5.58-4.48,10.63-6.58,15.7-3.54,8.52-7,17.08-10.68,25.54-.45,1.03-2.05,2.23-3.12,2.23-22.51,.12-45.03,.08-67.54,.07-.22,0-.45-.09-.95-.21,.39-1.08,.71-2.15,1.14-3.17C17.53,117.03,33.93,78.12,50.28,39.19c.79-1.89,1.64-2.93,3.96-2.92,21.82,.09,43.64,.05,65.47,.07,.78,0,1.55,.15,2.7,.26-6.5,15.73-12.9,31.24-19.31,46.74,.16,.11,.33,.22,.49,.33,8.21-6.7,16.43-13.4,24.64-20.11,10.37-8.48,20.72-16.98,31.13-25.41,1.02-.82,2.38-1.72,3.59-1.73,13.96-.12,27.92-.08,42.3,.65-18.98,15.77-37.97,31.55-57.24,47.55,11.16,14.81,22.22,29.49,33.58,44.58,14.32-36.35,28.42-72.14,42.52-107.92H127.66c2.67-7.16,5.3-14.24,7.92-21.28H403.42c-1.81,7.61-3.58,15-5.41,22.68-1.45,0-2.81,0-4.18,0-31.41,0-62.81,0-94.22-.02-2.05,0-3.53,.04-4.39,2.59-8.6,25.71-17.36,51.36-26.07,77.03-.21,.63-.35,1.28-.33,1.21,7.74-7.48,15.97-15.21,23.95-23.2,13.87-13.9,27.56-27.98,41.41-41.9,1.02-1.03,2.7-1.97,4.08-1.98,19.17-.13,38.33-.09,57.5-.08,.56,0,1.12,.1,2.17,.2-3.24,15.46-6.43,30.71-9.84,47,3.16-2.83,5.56-4.96,7.94-7.1,14.17-12.74,28.32-25.51,42.55-38.19,1.1-.98,2.78-1.83,4.2-1.84,20.44-.12,40.87-.08,61.31-.07,.56,0,1.12,.12,2.07,.23-9.08,40.67-18.12,81.15-27.18,121.71h-64.58Z"/>
  </g>
</svg>